<svg width="114" height="51" viewBox="0 0 114 51" fill="none" xmlns="http://www.w3.org/2000/svg">
<path d="M0.515931 47.6593C-0.224521 48.4789 -0.160328 49.7436 0.659309 50.4841C1.47895 51.2245 2.74365 51.1603 3.4841 50.3407L2.00002 49L0.515931 47.6593ZM24.6218 23.959L25.3553 22.0984L24.0664 21.5902L23.1377 22.6183L24.6218 23.959ZM46.5782 32.6151L45.8447 34.4758L47.0085 34.9346L47.9303 34.0889L46.5782 32.6151ZM68.3129 12.6751L69.1062 10.8392L67.9161 10.3249L66.9608 11.2013L68.3129 12.6751ZM90.4911 22.2587L89.6978 24.0946L90.9085 24.6178L91.8662 23.711L90.4911 22.2587ZM114 0L91.538 5.3658L107.416 22.1356L114 0ZM2.00002 49L3.4841 50.3407L26.1059 25.2997L24.6218 23.959L23.1377 22.6183L0.515931 47.6593L2.00002 49ZM24.6218 23.959L23.8883 25.8196L45.8447 34.4758L46.5782 32.6151L47.3118 30.7545L25.3553 22.0984L24.6218 23.959ZM46.5782 32.6151L47.9303 34.0889L69.6649 14.1488L68.3129 12.6751L66.9608 11.2013L45.2262 31.1414L46.5782 32.6151ZM68.3129 12.6751L67.5195 14.511L89.6978 24.0946L90.4911 22.2587L91.2844 20.4228L69.1062 10.8392L68.3129 12.6751ZM90.4911 22.2587L91.8662 23.711L102.304 13.8279L100.929 12.3756L99.5542 10.9233L89.116 20.8064L90.4911 22.2587Z" fill="#3BADFC"/>
</svg>
