<svg width="24" height="24" viewBox="0 0 24 24" fill="none" xmlns="http://www.w3.org/2000/svg">
<path d="M2 8.27V4.23C2 2.64 2.64 2 4.23 2H8.27C9.86 2 10.5 2.64 10.5 4.23V8.27C10.5 9.86 9.86 10.5 8.27 10.5H4.23C2.64 10.5 2 9.86 2 8.27Z" stroke="white" stroke-width="1.5" stroke-linecap="round" stroke-linejoin="round"/>
<path d="M13.5 8.52V3.98C13.5 2.57 14.14 2 15.73 2H19.77C21.36 2 22 2.57 22 3.98V8.51C22 9.93 21.36 10.49 19.77 10.49H15.73C14.14 10.5 13.5 9.93 13.5 8.52Z" stroke="white" stroke-width="1.5" stroke-linecap="round" stroke-linejoin="round"/>
<path d="M13.5 19.77V15.73C13.5 14.14 14.14 13.5 15.73 13.5H19.77C21.36 13.5 22 14.14 22 15.73V19.77C22 21.36 21.36 22 19.77 22H15.73C14.14 22 13.5 21.36 13.5 19.77Z" stroke="white" stroke-width="1.5" stroke-linecap="round" stroke-linejoin="round"/>
<path d="M9 15.5H3" stroke="white" stroke-width="1.5" stroke-linecap="round"/>
<path d="M9 19.5H3" stroke="white" stroke-width="1.5" stroke-linecap="round"/>
</svg>
