<svg width="20" height="20" viewBox="0 0 20 20" fill="none" xmlns="http://www.w3.org/2000/svg">
<path d="M8.7474 16.5833V3.41667C8.7474 2.16667 8.21406 1.66667 6.88906 1.66667H3.5224C2.1974 1.66667 1.66406 2.16667 1.66406 3.41667V16.5833C1.66406 17.8333 2.1974 18.3333 3.5224 18.3333H6.88906C8.21406 18.3333 8.7474 17.8333 8.7474 16.5833Z" stroke="#8C7AE6" stroke-width="1.5" stroke-linecap="round" stroke-linejoin="round"/>
<path d="M18.3333 9.08334V3.41667C18.3333 2.16667 17.8 1.66667 16.475 1.66667H13.1083C11.7833 1.66667 11.25 2.16667 11.25 3.41667V9.08334C11.25 10.3333 11.7833 10.8333 13.1083 10.8333H16.475C17.8 10.8333 18.3333 10.3333 18.3333 9.08334Z" stroke="#8C7AE6" stroke-width="1.5" stroke-linecap="round" stroke-linejoin="round"/>
<path d="M18.3333 16.5833V15.0833C18.3333 13.8333 17.8 13.3333 16.475 13.3333H13.1083C11.7833 13.3333 11.25 13.8333 11.25 15.0833V16.5833C11.25 17.8333 11.7833 18.3333 13.1083 18.3333H16.475C17.8 18.3333 18.3333 17.8333 18.3333 16.5833Z" stroke="#8C7AE6" stroke-width="1.5" stroke-linecap="round" stroke-linejoin="round"/>
</svg>
