<svg width="12" height="12" viewBox="0 0 12 12" fill="none" xmlns="http://www.w3.org/2000/svg">
    <path d="M5.375 1.22497C5.725 0.929973 6.29 0.929973 6.63 1.22497L7.42 1.89997C7.57 2.02497 7.855 2.12997 8.055 2.12997H8.905C9.435 2.12997 9.87 2.56497 9.87 3.09497V3.94497C9.87 4.14497 9.975 4.42497 10.1 4.57497L10.775 5.36497C11.07 5.71497 11.07 6.27997 10.775 6.61997L10.1 7.40997C9.975 7.55997 9.87 7.83997 9.87 8.03997V8.88997C9.87 9.41997 9.435 9.85497 8.905 9.85497H8.055C7.855 9.85497 7.575 9.95997 7.425 10.085L6.635 10.76C6.285 11.055 5.72 11.055 5.38 10.76L4.59 10.085C4.44 9.95997 4.155 9.85497 3.96 9.85497H3.085C2.555 9.85497 2.12 9.41997 2.12 8.88997V8.03497C2.12 7.83997 2.02 7.55497 1.895 7.40997L1.22 6.61497C0.930002 6.26997 0.930002 5.70997 1.22 5.36497L1.895 4.56997C2.02 4.41997 2.12 4.13997 2.12 3.94497V3.09997C2.12 2.56997 2.555 2.13497 3.085 2.13497H3.95C4.15 2.13497 4.43 2.02997 4.58 1.90497L5.375 1.22497Z" stroke="#FE2E2E" stroke-linecap="round" stroke-linejoin="round"/>
    <path d="M6 4.065V6.48" stroke="#FE2E2E" stroke-linecap="round" stroke-linejoin="round"/>
    <path d="M5.99725 8H6.00174" stroke="#FE2E2E" stroke-linecap="round" stroke-linejoin="round"/>
</svg>
