<svg width="18" height="22" viewBox="0 0 18 22" fill="none" xmlns="http://www.w3.org/2000/svg">
<path d="M16.75 5.75V15.75C16.75 19.75 15.75 20.75 11.75 20.75H5.75C1.75 20.75 0.75 19.75 0.75 15.75V5.75C0.75 1.75 1.75 0.75 5.75 0.75H11.75C15.75 0.75 16.75 1.75 16.75 5.75Z" stroke="#1E90FF" stroke-width="1.5" stroke-linecap="round" stroke-linejoin="round"/>
<path d="M10.75 4.25H6.75" stroke="#1E90FF" stroke-width="1.5" stroke-linecap="round" stroke-linejoin="round"/>
<path d="M8.75001 17.85C9.60605 17.85 10.3 17.156 10.3 16.3C10.3 15.444 9.60605 14.75 8.75001 14.75C7.89397 14.75 7.20001 15.444 7.20001 16.3C7.20001 17.156 7.89397 17.85 8.75001 17.85Z" stroke="#1E90FF" stroke-width="1.5" stroke-linecap="round" stroke-linejoin="round"/>
</svg>
