<svg width="20" height="20" viewBox="0 0 20 20" fill="none" xmlns="http://www.w3.org/2000/svg">
<path d="M6.04169 5.83334H13.9584V4.16667C13.9584 2.50001 13.3334 1.66667 11.4584 1.66667H8.54169C6.66669 1.66667 6.04169 2.50001 6.04169 4.16667V5.83334Z" stroke="#A3CB37" stroke-width="1.5" stroke-miterlimit="10" stroke-linecap="round" stroke-linejoin="round"/>
<path d="M13.3334 12.5V15.8333C13.3334 17.5 12.5 18.3333 10.8334 18.3333H9.16669C7.50002 18.3333 6.66669 17.5 6.66669 15.8333V12.5H13.3334Z" stroke="#A3CB37" stroke-width="1.5" stroke-miterlimit="10" stroke-linecap="round" stroke-linejoin="round"/>
<path d="M17.5 8.33333V12.5C17.5 14.1667 16.6667 15 15 15H13.3333V12.5H6.66667V15H5C3.33333 15 2.5 14.1667 2.5 12.5V8.33333C2.5 6.66666 3.33333 5.83333 5 5.83333H15C16.6667 5.83333 17.5 6.66666 17.5 8.33333Z" stroke="#A3CB37" stroke-width="1.5" stroke-miterlimit="10" stroke-linecap="round" stroke-linejoin="round"/>
<path d="M14.1666 12.5H13.1583H5.83331" stroke="#A3CB37" stroke-width="1.5" stroke-miterlimit="10" stroke-linecap="round" stroke-linejoin="round"/>
<path d="M5.83331 9.16667H8.33331" stroke="#A3CB37" stroke-width="1.5" stroke-miterlimit="10" stroke-linecap="round" stroke-linejoin="round"/>
</svg>
