<svg width="20" height="20" viewBox="0 0 20 20" fill="none" xmlns="http://www.w3.org/2000/svg">
<path d="M2.91669 5.83334V14.1667C2.91669 16.6667 4.14169 18.3333 7.08335 18.3333H12.9167C15.8084 18.3333 17.0834 16.6667 17.0834 14.1667V13.1917C17.0834 12.75 16.9084 12.325 16.5917 12.0167L15.9 11.325C15.5834 11.0083 15.4084 10.5917 15.4084 10.15V8.33334C15.4084 7.875 15.7834 7.5 16.2417 7.5C16.7 7.5 17.075 7.125 17.075 6.66667V5.83334C17.075 3.33334 15.8 1.66667 12.9084 1.66667H7.07502C4.14169 1.66667 2.91669 3.33334 2.91669 5.83334Z" stroke="#FFC412" stroke-width="1.5" stroke-linecap="round" stroke-linejoin="round"/>
<path d="M6.65836 18.3083L6.65002 15.8333C6.65002 14.9083 7.39169 14.1667 8.31669 14.1667H11.6584C12.575 14.1667 13.3167 14.9083 13.325 15.825L13.35 18.3167" stroke="#FFC412" stroke-width="1.5" stroke-linecap="round" stroke-linejoin="round"/>
<path d="M7.45001 4.12499L7.49168 1.71666" stroke="#FFC412" stroke-width="1.5" stroke-linecap="round" stroke-linejoin="round"/>
<path d="M9.95001 4.12499L9.99168 1.71666" stroke="#FFC412" stroke-width="1.5" stroke-linecap="round" stroke-linejoin="round"/>
<path d="M12.45 4.1L12.4917 1.7" stroke="#FFC412" stroke-width="1.5" stroke-linecap="round" stroke-linejoin="round"/>
</svg>
