<svg width="28" height="28" viewBox="0 0 28 28" fill="none" xmlns="http://www.w3.org/2000/svg">
<path d="M21.1633 25.2233C20.1367 25.5266 18.9233 25.6666 17.5 25.6666H10.5C9.07667 25.6666 7.86334 25.5266 6.83667 25.2233C7.09334 22.19 10.2083 19.7983 14 19.7983C17.7917 19.7983 20.9067 22.19 21.1633 25.2233Z" stroke="white" stroke-width="1.5" stroke-linecap="round" stroke-linejoin="round"/>
<path d="M17.5 2.33331H10.5C4.66667 2.33331 2.33334 4.66665 2.33334 10.5V17.5C2.33334 21.91 3.66334 24.325 6.83667 25.2233C7.09334 22.19 10.2083 19.7983 14 19.7983C17.7917 19.7983 20.9067 22.19 21.1633 25.2233C24.3367 24.325 25.6667 21.91 25.6667 17.5V10.5C25.6667 4.66665 23.3333 2.33331 17.5 2.33331ZM14 16.5316C11.69 16.5316 9.82333 14.6533 9.82333 12.3433C9.82333 10.0333 11.69 8.16665 14 8.16665C16.31 8.16665 18.1767 10.0333 18.1767 12.3433C18.1767 14.6533 16.31 16.5316 14 16.5316Z" stroke="white" stroke-width="1.5" stroke-linecap="round" stroke-linejoin="round"/>
<path d="M18.1767 12.3434C18.1767 14.6534 16.31 16.5317 14 16.5317C11.69 16.5317 9.82333 14.6534 9.82333 12.3434C9.82333 10.0334 11.69 8.16669 14 8.16669C16.31 8.16669 18.1767 10.0334 18.1767 12.3434Z" stroke="white" stroke-width="1.5" stroke-linecap="round" stroke-linejoin="round"/>
</svg>
